<svg width="20" height="20" viewBox="0 0 20 20" fill="none" xmlns="http://www.w3.org/2000/svg">
<g clip-path="url(#clip0_390_2825)">
<rect x="2" y="2" width="3.33333" height="3.11111" rx="0.444444" fill="white" style="fill:white;fill-opacity:1;"/>
<rect x="6.22192" y="2" width="3.33333" height="3.11111" rx="0.444444" fill="white" style="fill:white;fill-opacity:1;"/>
<rect x="10.4446" y="2" width="3.33333" height="3.11111" rx="0.444444" fill="white" style="fill:white;fill-opacity:1;"/>
<path fill-rule="evenodd" clip-rule="evenodd" d="M2.88889 6C2.39797 6 2 6.39797 2 6.88889V17.1111C2 17.602 2.39797 18 2.88889 18H17.1111C17.602 18 18 17.602 18 17.1111V6.88889C18 6.39797 17.602 6 17.1111 6H2.88889ZM4.49187 7.82117C4.44197 7.66762 4.22474 7.66762 4.17485 7.82117L4.07142 8.13948C4.04911 8.20815 3.98512 8.25464 3.91291 8.25464H3.57823C3.41677 8.25464 3.34964 8.46124 3.48026 8.55614L3.75103 8.75287C3.80944 8.79531 3.83389 8.87053 3.81157 8.93921L3.70815 9.25751C3.65826 9.41106 3.83401 9.53875 3.96463 9.44385L4.23539 9.24713C4.29381 9.20469 4.37291 9.20469 4.43132 9.24713L4.70209 9.44385C4.83271 9.53875 5.00845 9.41106 4.95856 9.25751L4.85514 8.93921C4.83282 8.87053 4.85727 8.79531 4.91568 8.75287L5.18645 8.55614C5.31707 8.46124 5.24994 8.25464 5.08848 8.25464H4.7538C4.68159 8.25464 4.6176 8.20815 4.59529 8.13948L4.49187 7.82117ZM6.8252 7.82119C6.77531 7.66763 6.55807 7.66763 6.50818 7.82119L6.40476 8.13949C6.38244 8.20816 6.31845 8.25465 6.24625 8.25465H5.91156C5.75011 8.25465 5.68298 8.46126 5.8136 8.55616L6.08436 8.75288C6.14278 8.79532 6.16722 8.87055 6.14491 8.93922L6.04148 9.25752C5.99159 9.41108 6.16734 9.53876 6.29796 9.44386L6.56873 9.24714C6.62714 9.2047 6.70624 9.2047 6.76465 9.24714L7.03542 9.44386C7.16604 9.53876 7.34179 9.41108 7.29189 9.25752L7.18847 8.93922C7.16616 8.87055 7.1906 8.79532 7.24902 8.75288L7.51978 8.55616C7.6504 8.46126 7.58327 8.25465 7.42182 8.25465H7.08713C7.01493 8.25465 6.95093 8.20816 6.92862 8.13949L6.8252 7.82119ZM8.84151 7.82119C8.89141 7.66763 9.10864 7.66763 9.15853 7.82119L9.26196 8.13949C9.28427 8.20816 9.34826 8.25465 9.42047 8.25465H9.75515C9.9166 8.25465 9.98373 8.46126 9.85312 8.55616L9.58235 8.75288C9.52393 8.79532 9.49949 8.87055 9.5218 8.93922L9.62523 9.25752C9.67512 9.41108 9.49937 9.53876 9.36875 9.44386L9.09799 9.24714C9.03957 9.2047 8.96047 9.2047 8.90206 9.24714L8.63129 9.44386C8.50067 9.53876 8.32493 9.41108 8.37482 9.25752L8.47824 8.93922C8.50055 8.87055 8.47611 8.79532 8.4177 8.75288L8.14693 8.55616C8.01631 8.46126 8.08344 8.25465 8.24489 8.25465H8.57958C8.65178 8.25465 8.71578 8.20816 8.73809 8.13949L8.84151 7.82119ZM11.4919 7.82119C11.442 7.66763 11.2247 7.66763 11.1748 7.82119L11.0714 8.13949C11.0491 8.20816 10.9851 8.25465 10.9129 8.25465H10.5782C10.4168 8.25465 10.3496 8.46126 10.4803 8.55616L10.751 8.75288C10.8094 8.79532 10.8339 8.87055 10.8116 8.93922L10.7082 9.25752C10.6583 9.41108 10.834 9.53876 10.9646 9.44386L11.2354 9.24714C11.2938 9.2047 11.3729 9.2047 11.4313 9.24714L11.7021 9.44386C11.8327 9.53876 12.0085 9.41108 11.9586 9.25752L11.8551 8.93922C11.8328 8.87055 11.8573 8.79532 11.9157 8.75288L12.1864 8.55616C12.3171 8.46126 12.2499 8.25465 12.0885 8.25465H11.7538C11.6816 8.25465 11.6176 8.20816 11.5953 8.13949L11.4919 7.82119ZM13.5082 7.82119C13.5581 7.66763 13.7753 7.66763 13.8252 7.82119L13.9286 8.13949C13.9509 8.20816 14.0149 8.25465 14.0871 8.25465H14.4218C14.5833 8.25465 14.6504 8.46126 14.5198 8.55616L14.249 8.75288C14.1906 8.79532 14.1662 8.87055 14.1885 8.93922L14.2919 9.25752C14.3418 9.41108 14.166 9.53876 14.0354 9.44386L13.7647 9.24714C13.7062 9.2047 13.6271 9.2047 13.5687 9.24714L13.298 9.44386C13.1673 9.53876 12.9916 9.41108 13.0415 9.25752L13.1449 8.93922C13.1672 8.87055 13.1428 8.79532 13.0844 8.75288L12.8136 8.55616C12.683 8.46126 12.7501 8.25465 12.9116 8.25465H13.2462C13.3185 8.25465 13.3824 8.20816 13.4048 8.13949L13.5082 7.82119ZM3.77778 11C3.53232 11 3.33333 11.199 3.33333 11.4444V13.2222C3.33333 13.4677 3.53232 13.6667 3.77778 13.6667H5.55556C5.80102 13.6667 6 13.4677 6 13.2222V11.4444C6 11.199 5.80102 11 5.55556 11H3.77778ZM7.33333 11.2083C7.17225 11.2083 7.04167 11.3389 7.04167 11.5C7.04167 11.6611 7.17225 11.7917 7.33333 11.7917H16C16.1611 11.7917 16.2917 11.6611 16.2917 11.5C16.2917 11.3389 16.1611 11.2083 16 11.2083H7.33333ZM7.33333 12.875C7.17225 12.875 7.04167 13.0056 7.04167 13.1667C7.04167 13.3277 7.17225 13.4583 7.33333 13.4583H16C16.1611 13.4583 16.2917 13.3277 16.2917 13.1667C16.2917 13.0056 16.1611 12.875 16 12.875H7.33333ZM7.33333 14.5417C7.17225 14.5417 7.04167 14.6723 7.04167 14.8333C7.04167 14.9944 7.17225 15.125 7.33333 15.125H12.3333C12.4944 15.125 12.625 14.9944 12.625 14.8333C12.625 14.6723 12.4944 14.5417 12.3333 14.5417H7.33333Z" fill="white" style="fill:white;fill-opacity:1;"/>
</g>
<defs>
<clipPath id="clip0_390_2825">
<rect width="16" height="16" fill="white" style="fill:white;fill-opacity:1;" transform="translate(2 2)"/>
</clipPath>
</defs>
</svg>
